# xmcd
#
# Track frame offsets:
#	175
#	18550
#	49667
#	70055
#	86417
#	100080
#	108007
#	140542
#	159040
#	188285
#	207877
#
# Disc length: 2823 seconds
#
# Revision: 1
# Processed by: cddbd v1.4PL0 Copyright (c) Steve Scherf et al.
# Submitted via: EasyCDDAExtractor 5.1.0
#
DISCID=7b0b050b
DTITLE=Indigo Brand - Blues for Colette
DYEAR=1994
DGENRE=Blues
TTITLE0=Our Love Is Here To Stay
TTITLE1=Lover Man
TTITLE2=Blues For Colette
TTITLE3=We;Ll Be Togetherer Again
TTITLE4=Blues In Green
TTITLE5=Yesterdays
TTITLE6=Old Folks
TTITLE7=Every Day
TTITLE8=Autumn Leaves
TTITLE9=You Don't Knw What Love Is
TTITLE10=Theme From Don't Move
EXTD=
EXTT0=
EXTT1=
EXTT2=
EXTT3=
EXTT4=
EXTT5=
EXTT6=
EXTT7=
EXTT8=
EXTT9=
EXTT10=
PLAYORDER=
